<svg width="17" height="24" viewBox="0 0 17 24" fill="none" xmlns="http://www.w3.org/2000/svg">
<path fill-rule="evenodd" clip-rule="evenodd" d="M11.4956 8.92758L11.0216 15.8256C10.9926 16.1866 10.7186 16.4896 10.4216 16.4896H6.09961C5.80261 16.4896 5.52761 16.1876 5.50061 15.8306L5.02561 8.92458C5.02161 8.87658 5.03761 8.84258 5.04461 8.80258L5.23861 8.55958C5.26361 8.52858 5.27361 8.49158 5.29161 8.45658C5.40161 8.38858 5.52861 8.33958 5.67461 8.33958H10.8486C10.9966 8.33958 11.1226 8.38758 11.2316 8.45658C11.2486 8.49058 11.2606 8.52858 11.2846 8.55958L11.4746 8.79758C11.4836 8.83958 11.4996 8.87658 11.4956 8.92758ZM16.4066 13.2916L12.4336 8.30958C12.3626 8.13358 12.2636 7.96758 12.1286 7.82358C11.8096 7.48158 11.3426 7.28558 10.8486 7.28558H5.67461C5.17861 7.28558 4.70761 7.48458 4.38861 7.82958C4.25261 7.97558 4.15361 8.14158 4.08361 8.31858L0.11561 13.2906C-0.0663901 13.5176 -0.0293901 13.8506 0.19761 14.0316C0.29561 14.1086 0.41161 14.1466 0.52661 14.1466C0.68161 14.1466 0.83461 14.0776 0.93861 13.9486L4.04661 10.0536L4.44961 15.9066C4.51761 16.8236 5.24361 17.5426 6.09961 17.5426H6.27461C6.05761 17.6076 5.89561 17.8006 5.89561 18.0396V23.4736C5.89561 23.7646 6.13161 23.9996 6.42261 23.9996C6.71361 23.9996 6.94861 23.7646 6.94861 23.4736V18.0396C6.94861 17.8006 6.78761 17.6076 6.56961 17.5426H9.95261C9.73461 17.6076 9.57361 17.8006 9.57361 18.0396V23.4736C9.57361 23.7646 9.80861 23.9996 10.0996 23.9996C10.3916 23.9996 10.6266 23.7646 10.6266 23.4736V18.0396C10.6266 17.8006 10.4656 17.6076 10.2476 17.5426H10.4216C11.2746 17.5426 11.9996 16.8246 12.0716 15.9036L12.4746 10.0506L15.5836 13.9486C15.6876 14.0776 15.8416 14.1466 15.9956 14.1466C16.1106 14.1466 16.2266 14.1086 16.3236 14.0316C16.5516 13.8506 16.5886 13.5186 16.4066 13.2916Z" fill="#22C3CA"/>
<path fill-rule="evenodd" clip-rule="evenodd" d="M8.26015 1.05357C9.15915 1.05357 9.89115 1.78457 9.89115 2.68257C9.89115 3.58257 9.15915 4.31457 8.26015 4.31457C7.36315 4.31457 6.63115 3.58257 6.63115 2.68257C6.63115 1.78457 7.36315 1.05357 8.26015 1.05357ZM8.26015 5.36757C9.74015 5.36757 10.9451 4.16257 10.9451 2.68257C10.9451 1.20357 9.74015 -0.000427246 8.26015 -0.000427246C6.78115 -0.000427246 5.57715 1.20357 5.57715 2.68257C5.57715 4.16257 6.78115 5.36757 8.26015 5.36757Z" fill="#22C3CA"/>
</svg>
